HIERARCHY
ROOT Hips
{
	OFFSET -0.001795 -0.223333 0.028219
	CHANNELS 6 Xposition Yposition Zposition Zrotation Yrotation Xrotation 
	JOINT LeftUpLeg
	{
		OFFSET 0.069520 -0.091406 -0.006815
		CHANNELS 3 Zrotation Yrotation Xrotation
		JOINT LeftLeg
		{
			OFFSET 0.034277 -0.375199 -0.004496
			CHANNELS 3 Zrotation Yrotation Xrotation
			JOINT LeftFoot
			{
				OFFSET -0.013596 -0.397961 -0.043693
				CHANNELS 3 Zrotation Yrotation Xrotation
				JOINT LeftToe
				{
					OFFSET 0.026358 -0.055791 0.119288
					CHANNELS 3 Zrotation Yrotation Xrotation
					End Site
					{
						OFFSET 0.000000 0.000000 0.000000
					}
				}
			}
		}
	}
	JOINT RightUpLeg
	{
		OFFSET -0.067670 -0.090522 -0.004320
		CHANNELS 3 Zrotation Yrotation Xrotation
		JOINT RightLeg
		{
			OFFSET -0.038290 -0.382569 -0.008850
			CHANNELS 3 Zrotation Yrotation Xrotation
			JOINT RightFoot
			{
				OFFSET 0.015774 -0.398415 -0.042312
				CHANNELS 3 Zrotation Yrotation Xrotation
				JOINT RightToe
				{
					OFFSET -0.025372 -0.048144 0.123348
					CHANNELS 3 Zrotation Yrotation Xrotation
					End Site
					{
						OFFSET 0.000000 0.000000 0.000000
					}
				}
			}
		}
	}
	JOINT Spine
	{
		OFFSET -0.002533 0.108963 -0.026696
		CHANNELS 3 Zrotation Yrotation Xrotation
		JOINT Spine1
		{
			OFFSET 0.005487 0.135180 0.001092
			CHANNELS 3 Zrotation Yrotation Xrotation
			JOINT Spine2
			{
				OFFSET 0.001457 0.052922 0.025425
				CHANNELS 3 Zrotation Yrotation Xrotation
				JOINT Neck
				{
					OFFSET -0.002778 0.213870 -0.042857
					CHANNELS 3 Zrotation Yrotation Xrotation
					JOINT Head
					{
						OFFSET 0.005152 0.064970 0.051349
						CHANNELS 3 Zrotation Yrotation Xrotation
						End Site
						{
							OFFSET 0.000000 0.000000 0.000000
						}
					}
				}
				JOINT LeftShoulder
				{
					OFFSET 0.078845 0.121749 -0.034090
					CHANNELS 3 Zrotation Yrotation Xrotation
					JOINT LeftArm
					{
						OFFSET 0.090977 0.030469 -0.008868
						CHANNELS 3 Zrotation Yrotation Xrotation
						JOINT LeftForeArm
						{
							OFFSET 0.259612 -0.012772 -0.027456
							CHANNELS 3 Zrotation Yrotation Xrotation
							JOINT LeftHand
							{
								OFFSET 0.249234 0.008986 -0.001171
								CHANNELS 3 Zrotation Yrotation Xrotation
								End Site
								{
									OFFSET 0.000000 0.000000 0.000000
								}
							}
						}
					}
				}
				JOINT RightShoulder
				{
					OFFSET -0.081759 0.118833 -0.038615
					CHANNELS 3 Zrotation Yrotation Xrotation
					JOINT RightArm
					{
						OFFSET -0.096012 0.032551 -0.009143
						CHANNELS 3 Zrotation Yrotation Xrotation
						JOINT RightForeArm
						{
							OFFSET -0.253742 -0.013329 -0.021401
							CHANNELS 3 Zrotation Yrotation Xrotation
							JOINT RightHand
							{
								OFFSET -0.255298 0.007772 -0.005559
								CHANNELS 3 Zrotation Yrotation Xrotation
								End Site
								{
									OFFSET 0.000000 0.000000 0.000000
								}
							}
						}
					}
				}
			}
		}
	}
}
MOTION
Frames: 16
Frame Time: 0.050000
-0.031066 0.950574 -0.026344 1.306094 3.738287 12.397316 5.357136 -0.812332 -11.892342 2.996800 -0.353916 0.924779 -0.446686 4.668387 13.001821 0.000000 0.000000 0.000000 -0.703065 0.986920 -10.266486 -8.454584 0.070054 -7.035573 2.913830 -0.255287 15.950379 0.000000 0.000000 0.000000 4.203470 -0.039641 -2.434909 -1.651120 0.835684 -4.392625 -7.522775 8.977671 -1.221721 12.920544 -6.374935 -12.213808 0.000000 0.000000 0.000000 -12.720799 3.897708 -5.015217 -34.511163 5.739697 -4.569219 -95.053919 -45.753283 46.470001 0.000000 0.000000 0.000000 12.603149 -9.005010 -3.836027 61.465586 4.800538 -1.753212 47.610572 66.938765 39.594519 0.000000 0.000000 0.000000 
-0.034479 0.950559 -0.025932 1.294638 4.868374 12.425458 5.669477 -0.829146 -12.166033 3.103335 -0.361684 0.937553 -1.020948 3.930677 13.104801 0.000000 0.000000 0.000000 -0.380575 0.968774 -9.960908 -8.450247 0.051619 -7.253571 2.376137 -1.011295 15.932061 0.000000 0.000000 0.000000 4.032620 -0.038612 -2.421781 -1.473949 0.767333 -4.168546 -8.063623 9.570084 -1.796363 13.479439 -6.873028 -11.484507 0.000000 0.000000 0.000000 -12.270406 3.920770 -5.077879 -34.348706 5.405673 -4.412099 -96.672248 -44.941119 46.084985 0.000000 0.000000 0.000000 13.058465 -9.051680 -3.707263 60.230031 5.047893 -1.571208 44.927368 67.401943 38.366929 0.000000 0.000000 0.000000 
-0.037091 0.950143 -0.025591 1.337668 5.888970 12.577991 5.876768 -0.853939 -12.466272 3.183809 -0.356765 0.797999 -1.523839 3.268156 13.133709 0.000000 0.000000 0.000000 -0.320804 0.963023 -9.907484 -8.202538 0.042568 -7.298461 1.841414 -1.726974 15.753762 0.000000 0.000000 0.000000 4.078104 -0.032003 -2.603612 -1.540539 0.800892 -4.105020 -8.230354 9.845202 -1.840963 13.895439 -7.079713 -11.559143 0.000000 0.000000 0.000000 -12.199257 4.158772 -5.279168 -34.563596 4.897443 -4.286187 -98.019125 -44.563569 46.182276 0.000000 0.000000 0.000000 12.944485 -9.188422 -3.659720 59.494373 5.714464 -1.204118 41.359526 67.721216 36.275724 0.000000 0.000000 0.000000 
-0.038707 0.949586 -0.025318 1.405849 6.978206 12.518300 6.103670 -0.876046 -12.734650 3.067159 -0.351535 0.977505 -2.031241 2.537158 12.994019 0.000000 0.000000 0.000000 -0.079558 0.961782 -9.820385 -8.425215 0.099736 -6.958699 1.245058 -2.514369 15.443861 0.000000 0.000000 0.000000 4.039422 -0.041093 -2.492684 -1.507687 0.798474 -4.185132 -8.497746 10.153023 -2.114193 14.284398 -7.226101 -11.727052 0.000000 0.000000 0.000000 -12.355713 4.514312 -5.610442 -34.575409 5.008097 -4.286982 -99.271428 -43.508615 45.468761 0.000000 0.000000 0.000000 13.367107 -9.802668 -3.868902 57.946331 6.156667 -1.029244 39.269412 68.404932 35.531798 0.000000 0.000000 0.000000 
-0.039499 0.948638 -0.025199 1.437641 7.676388 12.645666 6.201562 -0.901631 -13.029647 3.088159 -0.351707 0.992521 -2.314842 2.080307 12.787433 0.000000 0.000000 0.000000 -0.064104 0.957414 -9.791184 -8.331781 0.092618 -7.026159 0.854621 -3.029151 15.197901 0.000000 0.000000 0.000000 4.153773 -0.034030 -2.709532 -1.532752 0.816499 -4.284669 -8.707535 10.296338 -2.316374 14.588732 -7.325145 -11.933768 0.000000 0.000000 0.000000 -12.532255 5.153500 -6.006761 -35.308538 5.024093 -4.412494 -99.308695 -42.435486 43.980880 0.000000 0.000000 0.000000 13.627420 -10.344940 -4.086242 57.228413 6.776283 -0.752324 37.683557 69.181282 35.097952 0.000000 0.000000 0.000000 
-0.039734 0.947723 -0.025385 1.410881 8.400956 12.670386 6.432413 -0.906909 -13.055264 2.920470 -0.311441 0.679438 -2.619752 1.585951 12.594617 0.000000 0.000000 0.000000 -0.043666 0.962417 -9.866661 -8.195715 0.126734 -6.739710 0.433981 -3.583159 14.863635 0.000000 0.000000 0.000000 4.310608 -0.031633 -2.865588 -1.608992 0.839812 -3.866388 -8.796383 10.105677 -3.159938 14.454719 -7.351903 -11.449387 0.000000 0.000000 0.000000 -12.440187 5.483402 -6.136174 -35.840530 5.330804 -4.553022 -100.140635 -42.203403 44.149260 0.000000 0.000000 0.000000 13.903518 -10.736364 -4.283636 56.387485 7.019647 -0.637975 38.004145 69.972574 35.932224 0.000000 0.000000 0.000000 
-0.039484 0.947312 -0.025851 1.264033 8.546112 12.711388 6.668205 -0.903560 -13.138330 2.797670 -0.294482 0.613148 -2.640372 1.506906 12.464391 0.000000 0.000000 0.000000 0.019752 0.971101 -9.935914 -8.043743 0.120193 -6.747103 0.362124 -3.678356 14.812435 0.000000 0.000000 0.000000 4.636011 -0.032820 -3.016373 -1.734013 0.907910 -4.398887 -8.662147 10.037543 -3.153714 14.471661 -7.393710 -11.357484 0.000000 0.000000 0.000000 -12.173450 6.415000 -6.396608 -36.039721 5.422345 -4.667537 -100.641530 -41.774097 44.010599 0.000000 0.000000 0.000000 13.704455 -11.498230 -4.695928 56.133781 6.670496 -0.774594 43.621037 71.204902 41.247072 0.000000 0.000000 0.000000 
-0.038866 0.946895 -0.026424 1.207653 8.855114 13.005266 6.958361 -0.909258 -13.301265 2.415566 -0.228347 0.148301 -2.760891 1.331680 12.447957 0.000000 0.000000 0.000000 -0.145049 0.980090 -10.144118 -7.693695 0.084952 -6.928486 0.210764 -3.911606 14.854400 0.000000 0.000000 0.000000 4.813849 -0.011672 -3.470413 -1.747780 0.916772 -4.473598 -8.533179 9.513106 -3.319681 14.263320 -7.333553 -11.140855 0.000000 0.000000 0.000000 -11.944436 6.998815 -6.489590 -36.344150 5.562584 -4.779118 -101.245900 -41.628912 44.397070 0.000000 0.000000 0.000000 13.290173 -12.342348 -5.192542 56.034298 5.332707 -1.319951 58.454379 71.648451 53.757929 0.000000 0.000000 0.000000 
-0.037833 0.947049 -0.026876 1.048093 8.715393 12.971488 7.162934 -0.880872 -12.959981 2.213868 -0.179535 -0.397951 -2.705625 1.424047 12.501180 0.000000 0.000000 0.000000 -0.156878 0.973507 -10.060767 -7.505492 0.051198 -7.143328 0.325381 -3.774881 15.046030 0.000000 0.000000 0.000000 5.012622 -0.007362 -3.598282 -1.469407 0.811839 -4.790476 -8.567202 9.183470 -3.234941 14.149692 -7.289082 -11.107303 0.000000 0.000000 0.000000 -11.662423 7.835163 -6.657920 -36.073871 5.980402 -4.903953 -101.393240 -41.620159 44.711958 0.000000 0.000000 0.000000 12.845793 -12.974962 -5.559851 55.957360 4.147820 -1.812137 74.060431 71.003768 66.852451 0.000000 0.000000 0.000000 
-0.036461 0.947030 -0.027316 1.035979 8.541787 13.207389 7.324250 -0.877829 -13.052001 1.785677 -0.129361 -0.648583 -2.606991 1.564888 12.520695 0.000000 0.000000 0.000000 -0.457753 0.987575 -10.394879 -7.155069 0.040964 -7.089732 0.398421 -3.680281 15.092430 0.000000 0.000000 0.000000 5.082907 0.021857 -4.063157 -1.513814 0.830031 -4.884148 -8.122689 8.577164 -3.142225 13.751133 -6.977705 -11.360735 0.000000 0.000000 0.000000 -11.082137 8.649904 -6.657058 -36.207820 6.413479 -5.120229 -101.203704 -41.915611 45.280366 0.000000 0.000000 0.000000 11.873246 -13.817765 -6.034612 55.936054 2.173481 -2.617259 87.259748 67.704747 75.542027 0.000000 0.000000 0.000000 
-0.034851 0.947195 -0.027882 0.907748 8.016396 13.198678 7.382079 -0.846495 -12.651136 1.640550 -0.091836 -1.185172 -2.367589 1.907509 12.566965 0.000000 0.000000 0.000000 -0.597060 0.983595 -10.394647 -6.927627 0.003265 -7.315268 0.696375 -3.279978 15.285778 0.000000 0.000000 0.000000 5.126488 0.039032 -4.263523 -1.307103 0.745489 -5.008352 -8.057551 8.226798 -2.975022 13.402539 -6.798665 -11.309167 0.000000 0.000000 0.000000 -11.181704 9.397733 -6.912675 -35.622588 6.732507 -5.129576 -100.935125 -42.707378 46.438485 0.000000 0.000000 0.000000 12.049366 -14.677975 -6.549665 55.827600 0.178624 -3.546333 95.701301 63.582283 79.093031 0.000000 0.000000 0.000000 
-0.033075 0.946925 -0.028978 0.781473 7.583159 13.285903 7.516758 -0.824538 -12.437662 1.366107 -0.048114 -1.667876 -2.136391 2.200936 12.511069 0.000000 0.000000 0.000000 -0.731360 0.997276 -10.607009 -6.740119 -0.013765 -7.375036 0.915681 -2.972566 15.344077 0.000000 0.000000 0.000000 5.192504 0.067613 -4.648378 -1.237998 0.707071 -4.819822 -7.911689 7.907922 -2.868088 13.160136 -6.606141 -11.524929 0.000000 0.000000 0.000000 -11.382482 9.834264 -7.092483 -35.192713 6.606255 -5.024116 -100.559834 -43.930151 47.974428 0.000000 0.000000 0.000000 12.373147 -15.275240 -6.939748 55.816042 -0.906410 -4.085792 97.863259 60.374127 77.362317 0.000000 0.000000 0.000000 
-0.030970 0.946846 -0.030792 0.837401 7.140343 13.353636 7.336381 -0.818599 -12.311356 1.237831 -0.023838 -2.007928 -1.935103 2.472438 12.510022 0.000000 0.000000 0.000000 -1.025884 0.987432 -10.633171 -6.668161 -0.061475 -7.761945 1.165459 -2.661169 15.572896 0.000000 0.000000 0.000000 5.115027 0.069437 -4.628932 -1.351523 0.749298 -4.825325 -7.789164 7.682299 -2.718526 13.039407 -6.429052 -11.952354 0.000000 0.000000 0.000000 -11.736610 9.368882 -6.985000 -34.976046 6.255423 -4.866100 -100.623075 -45.890268 50.640979 0.000000 0.000000 0.000000 12.879208 -15.442201 -7.121681 56.141164 -1.997766 -4.667145 99.347616 58.129085 76.033193 0.000000 0.000000 0.000000 
-0.028324 0.946756 -0.033443 0.951471 6.952771 13.383605 7.278865 -0.812025 -12.160378 0.761740 0.031549 -2.510148 -1.873400 2.560080 12.544561 0.000000 0.000000 0.000000 -1.261318 0.990044 -10.802653 -6.863135 -0.061418 -7.811896 1.265983 -2.559050 15.741309 0.000000 0.000000 0.000000 5.005234 0.076863 -4.691558 -1.306861 0.732240 -4.916313 -7.677344 7.326524 -2.483567 12.902582 -6.127834 -12.800759 0.000000 0.000000 0.000000 -12.301730 8.883052 -6.935893 -34.795714 5.452144 -4.596996 -99.740376 -47.533939 52.155438 0.000000 0.000000 0.000000 13.217523 -15.398976 -7.182403 56.625861 -1.941138 -4.741976 98.089697 57.139676 73.376820 0.000000 0.000000 0.000000 
-0.025116 0.946794 -0.036657 1.157148 6.767531 13.503120 7.103797 -0.813416 -12.053929 0.249888 0.089750 -3.156172 -1.842167 2.639895 12.677965 0.000000 0.000000 0.000000 -1.642517 0.983112 -10.954903 -7.054278 -0.088786 -8.103323 1.389100 -2.465894 16.081847 0.000000 0.000000 0.000000 4.909434 0.068125 -4.566016 -1.282792 0.714285 -4.689696 -7.781116 6.925603 -2.623166 12.747163 -5.953321 -13.136955 0.000000 0.000000 0.000000 -13.023266 7.917699 -6.733994 -34.984150 4.364894 -4.275497 -98.209339 -49.539532 53.471860 0.000000 0.000000 0.000000 13.535537 -14.832285 -6.973736 57.223069 -1.534859 -4.645281 96.293378 57.051330 71.250639 0.000000 0.000000 0.000000 
-0.021665 0.947140 -0.040149 1.298245 6.574760 13.409010 6.819980 -0.811089 -11.854808 -0.000388 0.119935 -3.596942 -1.815499 2.705875 12.787457 0.000000 0.000000 0.000000 -1.862790 0.969563 -10.918897 -7.420788 -0.108193 -8.366469 1.552450 -2.338836 16.523902 0.000000 0.000000 0.000000 4.990154 0.065310 -4.513837 -1.355463 0.740652 -4.621285 -7.843881 6.536991 -2.489813 12.642367 -5.907165 -13.188324 0.000000 0.000000 0.000000 -13.811727 6.598168 -6.375517 -35.180741 3.186106 -3.944412 -96.087033 -51.492885 54.190637 0.000000 0.000000 0.000000 13.653970 -13.747069 -6.478149 57.798951 -0.743233 -4.381908 94.028739 57.582484 69.395493 0.000000 0.000000 0.000000 
